<svg xmlns="http://www.w3.org/2000/svg" viewBox="0 0 800 380" width="800" height="380">
  <rect width="800" height="380" fill="#FFFFFF"/>
  <g transform="translate(40,40)">
<g id="chart_progress" data-chart-type="progress">
<g id="chartArea">
<!-- chart-plot-area: 0,0,720,300 -->
<text x="88.48" y="42.94" font-family="Pretendard, 'Malgun Gothic', 'Microsoft YaHei', Arial, sans-serif" font-size="16" font-weight="500" fill="#5B6472" text-anchor="end">제품 로드맵</text>
<rect x="98.48" y="31.5" width="557.52" height="12" fill="#1C1C1C" rx="6" fill-opacity="0.06"/>
<rect x="98.48" y="31.5" width="457.17" height="12" fill="#0F4C81" rx="6"/>
<text x="666.00" y="42.94" font-family="Pretendard, 'Malgun Gothic', 'Microsoft YaHei', Arial, sans-serif" font-size="16" font-weight="600" fill="#1C1C1C">82%</text>
<text x="88.48" y="117.94" font-family="Pretendard, 'Malgun Gothic', 'Microsoft YaHei', Arial, sans-serif" font-size="16" font-weight="500" fill="#5B6472" text-anchor="end">글로벌 진출</text>
<rect x="98.48" y="106.5" width="557.52" height="12" fill="#1C1C1C" rx="6" fill-opacity="0.06"/>
<rect x="98.48" y="106.5" width="356.81" height="12" fill="#0F4C81" rx="6"/>
<text x="666.00" y="117.94" font-family="Pretendard, 'Malgun Gothic', 'Microsoft YaHei', Arial, sans-serif" font-size="16" font-weight="600" fill="#1C1C1C">64%</text>
<text x="88.48" y="192.94" font-family="Pretendard, 'Malgun Gothic', 'Microsoft YaHei', Arial, sans-serif" font-size="16" font-weight="500" fill="#5B6472" text-anchor="end">조직 확장</text>
<rect x="98.48" y="181.5" width="557.52" height="12" fill="#1C1C1C" rx="6" fill-opacity="0.06"/>
<rect x="98.48" y="181.5" width="250.88" height="12" fill="#0F4C81" rx="6"/>
<text x="666.00" y="192.94" font-family="Pretendard, 'Malgun Gothic', 'Microsoft YaHei', Arial, sans-serif" font-size="16" font-weight="600" fill="#1C1C1C">45%</text>
<text x="88.48" y="267.94" font-family="Pretendard, 'Malgun Gothic', 'Microsoft YaHei', Arial, sans-serif" font-size="16" font-weight="500" fill="#5B6472" text-anchor="end">보안 인증</text>
<rect x="98.48" y="256.5" width="557.52" height="12" fill="#1C1C1C" rx="6" fill-opacity="0.06"/>
<rect x="98.48" y="256.5" width="507.34" height="12" fill="#0F4C81" rx="6"/>
<text x="666.00" y="267.94" font-family="Pretendard, 'Malgun Gothic', 'Microsoft YaHei', Arial, sans-serif" font-size="16" font-weight="600" fill="#1C1C1C">91%</text>
</g>
</g>
  </g>
</svg>
