<svg xmlns="http://www.w3.org/2000/svg" viewBox="0 0 640 540" width="640" height="540">
  <rect width="640" height="540" fill="#FFFFFF"/>
  <g transform="translate(40,40)">
<g id="chart_radar" data-chart-type="radar">
<g id="chartArea">
<!-- chart-plot-area: radar | center: 280,236 | radius: 185 -->
<polygon points="280.00,190.10 320.10,213.25 320.10,259.55 280.00,282.70 239.90,259.55 239.90,213.25" fill="none" stroke="#E2E5EA" stroke-width="1" stroke-linejoin="round"/>
<polygon points="280.00,143.80 360.19,190.10 360.19,282.70 280.00,329.00 199.81,282.70 199.81,190.10" fill="none" stroke="#E2E5EA" stroke-width="1" stroke-linejoin="round"/>
<polygon points="280.00,97.50 400.29,166.95 400.29,305.85 280.00,375.30 159.71,305.85 159.71,166.95" fill="none" stroke="#E2E5EA" stroke-width="1" stroke-linejoin="round"/>
<polygon points="280.00,51.20 440.39,143.80 440.39,329.00 280.00,421.60 119.61,329.00 119.61,143.80" fill="none" stroke="#E2E5EA" stroke-width="1" stroke-linejoin="round"/>
<line x1="280" y1="236.4" x2="280" y2="51.2" stroke="#E2E5EA" stroke-width="1"/>
<text x="280.00" y="44.00" font-family="Pretendard, 'Malgun Gothic', 'Microsoft YaHei', Arial, sans-serif" font-size="16" font-weight="500" fill="#5B6472" text-anchor="middle">기획</text>
<line x1="280" y1="236.4" x2="440.39" y2="143.8" stroke="#E2E5EA" stroke-width="1"/>
<text x="450.78" y="142.60" font-family="Pretendard, 'Malgun Gothic', 'Microsoft YaHei', Arial, sans-serif" font-size="16" font-weight="500" fill="#5B6472">개발</text>
<line x1="280" y1="236.4" x2="440.39" y2="329" stroke="#E2E5EA" stroke-width="1"/>
<text x="450.78" y="339.80" font-family="Pretendard, 'Malgun Gothic', 'Microsoft YaHei', Arial, sans-serif" font-size="16" font-weight="500" fill="#5B6472">디자인</text>
<line x1="280" y1="236.4" x2="280" y2="421.6" stroke="#E2E5EA" stroke-width="1"/>
<text x="280.00" y="438.40" font-family="Pretendard, 'Malgun Gothic', 'Microsoft YaHei', Arial, sans-serif" font-size="16" font-weight="500" fill="#5B6472" text-anchor="middle">마케팅</text>
<line x1="280" y1="236.4" x2="119.61" y2="329" stroke="#E2E5EA" stroke-width="1"/>
<text x="109.22" y="339.80" font-family="Pretendard, 'Malgun Gothic', 'Microsoft YaHei', Arial, sans-serif" font-size="16" font-weight="500" fill="#5B6472" text-anchor="end">운영</text>
<line x1="280" y1="236.4" x2="119.61" y2="143.8" stroke="#E2E5EA" stroke-width="1"/>
<text x="109.22" y="142.60" font-family="Pretendard, 'Malgun Gothic', 'Microsoft YaHei', Arial, sans-serif" font-size="16" font-weight="500" fill="#5B6472" text-anchor="end">데이터</text>
<polygon points="280.00,84.54 425.95,152.13 398.69,304.92 280.00,353.08 154.90,308.63 143.67,157.69" fill="#0F4C81" stroke="#0F4C81" stroke-width="2" stroke-linejoin="round" fill-opacity="0.16"/>
<circle cx="280" cy="84.54" r="3" fill="#0F4C81"/>
<circle cx="425.95" cy="152.13" r="3" fill="#0F4C81"/>
<circle cx="398.69" cy="304.92" r="3" fill="#0F4C81"/>
<circle cx="280" cy="353.08" r="3" fill="#0F4C81"/>
<circle cx="154.9" cy="308.63" r="3" fill="#0F4C81"/>
<circle cx="143.67" cy="157.69" r="3" fill="#0F4C81"/>
<polygon points="280.00,106.76 400.29,166.95 389.06,299.37 280.00,369.74 174.14,297.52 182.16,179.91" fill="#0F4C81" stroke="#0F4C81" stroke-width="2" stroke-linejoin="round" fill-opacity="0.1" stroke-opacity="0.6"/>
<circle cx="280" cy="106.76" r="3" fill="#0F4C81" fill-opacity="0.6"/>
<circle cx="400.29" cy="166.95" r="3" fill="#0F4C81" fill-opacity="0.6"/>
<circle cx="389.06" cy="299.37" r="3" fill="#0F4C81" fill-opacity="0.6"/>
<circle cx="280" cy="369.74" r="3" fill="#0F4C81" fill-opacity="0.6"/>
<circle cx="174.14" cy="297.52" r="3" fill="#0F4C81" fill-opacity="0.6"/>
<circle cx="182.16" cy="179.91" r="3" fill="#0F4C81" fill-opacity="0.6"/>
<rect x="8" y="4" width="10" height="10" fill="#0F4C81" rx="2" fill-opacity="0.85"/>
<text x="24.00" y="17.60" font-family="Pretendard, 'Malgun Gothic', 'Microsoft YaHei', Arial, sans-serif" font-size="16" font-weight="500" fill="#5B6472">우리 팀</text>
<rect x="94.48" y="4" width="10" height="10" fill="#0F4C81" rx="2" fill-opacity="0.6"/>
<text x="110.48" y="17.60" font-family="Pretendard, 'Malgun Gothic', 'Microsoft YaHei', Arial, sans-serif" font-size="16" font-weight="500" fill="#5B6472">업계 평균</text>
</g>
</g>
  </g>
</svg>
